<svg width="234" height="90" viewBox="0 0 234 90" fill="none" xmlns="http://www.w3.org/2000/svg">
<rect x="0.5" y="0.5" width="233" height="89" rx="1.5" stroke="white" stroke-opacity="0.1"/>
<path d="M94.56 28.328C95.136 28.328 95.632 28.536 96.048 28.952C96.464 29.368 96.672 29.864 96.672 30.44C96.672 31.048 96.464 31.56 96.048 31.976C95.632 32.392 95.136 32.6 94.56 32.6C93.952 32.6 93.44 32.392 93.024 31.976C92.608 31.56 92.4 31.048 92.4 30.44C92.4 29.864 92.608 29.368 93.024 28.952C93.44 28.536 93.952 28.328 94.56 28.328ZM96.192 35V59H92.88V35H96.192ZM110.998 35C112.726 35 114.31 35.432 115.75 36.296C117.222 37.128 118.39 38.28 119.254 39.752C120.118 41.192 120.55 42.776 120.55 44.504V59H117.238V44.504C117.238 43.384 116.95 42.36 116.374 41.432C115.83 40.472 115.078 39.72 114.118 39.176C113.158 38.6 112.118 38.312 110.998 38.312C109.878 38.312 108.838 38.6 107.878 39.176C106.918 39.72 106.15 40.472 105.574 41.432C105.03 42.36 104.758 43.384 104.758 44.504V59H101.494V35.624H104.758V37.736C105.558 36.84 106.486 36.168 107.542 35.72C108.63 35.24 109.782 35 110.998 35ZM135.684 38.264H131.7V59H128.388V38.264H124.404V35H128.388V27.08H131.7V35H135.684V38.264ZM141.548 48.776C141.932 50.824 142.94 52.536 144.572 53.912C146.204 55.256 148.076 55.928 150.188 55.928C151.756 55.928 153.196 55.56 154.508 54.824C155.82 54.088 156.876 53.08 157.676 51.8L160.508 53.432C159.42 55.192 157.964 56.6 156.14 57.656C154.316 58.712 152.332 59.24 150.188 59.24C148.012 59.24 145.996 58.696 144.14 57.608C142.284 56.52 140.812 55.048 139.724 53.192C138.636 51.336 138.092 49.32 138.092 47.144C138.092 44.936 138.636 42.92 139.724 41.096C140.812 39.24 142.284 37.768 144.14 36.68C145.996 35.592 148.012 35.048 150.188 35.048C152.364 35.048 154.38 35.592 156.236 36.68C158.092 37.768 159.564 39.24 160.652 41.096C161.74 42.92 162.284 44.936 162.284 47.144C162.284 47.528 162.252 48.072 162.188 48.776H141.548ZM150.188 38.312C148.78 38.312 147.404 38.648 146.06 39.32C144.716 39.96 143.628 40.856 142.796 42.008C141.964 43.128 141.548 44.344 141.548 45.656H158.828C158.828 44.344 158.412 43.128 157.58 42.008C156.748 40.856 155.66 39.96 154.316 39.32C153.004 38.648 151.628 38.312 150.188 38.312ZM177.595 38.552C176.859 38.232 176.123 38.072 175.387 38.072C173.883 38.072 172.587 38.616 171.499 39.704C170.411 40.792 169.867 42.088 169.867 43.592V59H166.603V43.592C166.603 41.864 167.051 40.296 167.947 38.888C168.875 37.448 170.075 36.376 171.547 35.672L171.643 35.624C172.827 35.08 174.075 34.808 175.387 34.808C177.435 34.808 179.259 35.432 180.859 36.68L177.595 38.552ZM185.873 28.328C186.449 28.328 186.945 28.536 187.361 28.952C187.777 29.368 187.985 29.864 187.985 30.44C187.985 31.048 187.777 31.56 187.361 31.976C186.945 32.392 186.449 32.6 185.873 32.6C185.265 32.6 184.753 32.392 184.337 31.976C183.921 31.56 183.713 31.048 183.713 30.44C183.713 29.864 183.921 29.368 184.337 28.952C184.753 28.536 185.265 28.328 185.873 28.328ZM187.505 35V59H184.193V35H187.505ZM203.017 59.24C200.841 59.24 198.809 58.696 196.921 57.608C195.065 56.52 193.593 55.048 192.505 53.192C191.417 51.304 190.873 49.272 190.873 47.096C190.873 44.888 191.417 42.856 192.505 41C193.593 39.112 195.065 37.624 196.921 36.536C198.809 35.416 200.841 34.856 203.017 34.856C205.225 34.856 207.257 35.416 209.113 36.536C211.001 37.624 212.489 39.112 213.577 41C214.697 42.856 215.257 44.888 215.257 47.096C215.257 49.272 214.697 51.304 213.577 53.192C212.489 55.048 211.001 56.52 209.113 57.608C207.257 58.696 205.225 59.24 203.017 59.24ZM203.017 56.024C204.649 56.024 206.137 55.624 207.481 54.824C208.857 54.024 209.945 52.936 210.745 51.56C211.545 50.184 211.945 48.696 211.945 47.096C211.945 45.464 211.545 43.96 210.745 42.584C209.945 41.208 208.857 40.12 207.481 39.32C206.137 38.52 204.649 38.12 203.017 38.12C201.417 38.12 199.929 38.52 198.553 39.32C197.209 40.12 196.137 41.208 195.337 42.584C194.537 43.96 194.137 45.464 194.137 47.096C194.137 48.696 194.537 50.184 195.337 51.56C196.137 52.936 197.209 54.024 198.553 54.824C199.929 55.624 201.417 56.024 203.017 56.024Z" fill="#5C75B8"/>
<path fill-rule="evenodd" clip-rule="evenodd" d="M73 35.76L77.72 40.48C78.48 41.24 78.48 41.96 77.72 42.68L72.36 48.04C71.6 48.8 70.88 48.8 70.12 48.04L51.48 29.4L32.92 48C32.76 48.16 32.6 48.28 32.48 48.36L15.6 65.24C14.84 66 14.12 66 13.36 65.24L8.00001 59.88C7.28001 59.16 7.28001 58.4 8.00001 57.68L27.16 38.52H27.24L44.52 21.24H44.64L47.08 18.8C48.52 17.36 49.96 16.64 51.4 16.6C51.48 16.6 51.52 16.6 51.6 16.6C52.68 16.64 53.76 17.04 54.84 17.88L59.12 21.84L59.08 21.88L66.36 29.16V24.96C66.36 23.92 66.88 23.4 67.92 23.4H71.44C72.48 23.4 73 23.92 73 24.96V35.76ZM45.64 53.56C47.2 52 49.08 51.24 51.28 51.24C53.48 51.24 55.36 52 56.92 53.56C58.48 55.12 59.28 57 59.28 59.2C59.28 61.4 58.48 63.28 56.92 64.84C55.36 66.4 53.48 67.2 51.28 67.2C49.08 67.2 47.2 66.4 45.64 64.84C44.08 63.28 43.32 61.4 43.32 59.2C43.32 57 44.08 55.12 45.64 53.56Z" fill="#FFD873"/>
</svg>
